# xmcd
#
# Track frame offsets: 
#        150
#        11039
#        22194
#        34062
#        45331
#        54963
#        69432
#        83307
#
# Disc length: 1262 seconds
#
# Revision: 0
# Processed by: cddbd v1.5.2PL0 Copyright (c) Steve Scherf et al.
# Submitted via: ExactAudioCopyFreeDBPlugin 1.0
#
DISCID=5404ec08
DTITLE=Frank McCloud Duo (Frank McCloud and Petra Arnold-Schultz) - Fran
DTITLE=k McCloud Duo - We Walk The Line
DYEAR=2011
DGENRE=Country
TTITLE0=I Walk The Line (Johnny Cash)
TTITLE1=I Saw The Light (Hank Williams)
TTITLE2=Wand'rin Star (Alan J. Lerner - Frederick Loewe)
TTITLE3=Get Along Little Doggies (Traditional)
TTITLE4=Broken Hearted Gypsy (Johnny Horton)
TTITLE5=Medley - River Of No Return - One Silver Dollar (Lionel Newman
TTITLE5=, Cyril Mockridge, Ken Darby)
TTITLE6=Ramblin' Man (Hank Williams)
TTITLE7=Rock Island Line (Traditional)
EXTD=
EXTT0=
EXTT1=
EXTT2=
EXTT3=
EXTT4=
EXTT5=
EXTT6=
EXTT7=
PLAYORDER=
